# xmcd
#
# Track frame offsets: 
#        150
#        37050
#        65000
#        87900
#        112012
#        150275
#        187225
#        207262
#
# Disc length: 3178 seconds
#
# Revision: 1
# Processed by: cddbd v1.5.2PL0 Copyright (c) Steve Scherf et al.
# Submitted via: ExactAudioCopy v1.3
#
DISCID=6f0c6808
DTITLE=Colin Davis and Royal Conncertgebouw Orchestra - Haydn Symphonies
DTITLE=No 100 and 104
DYEAR=1977
DGENRE=Classical
TTITLE0=Haydn Symphony No 100 in G Hob I 100 Military - 1 Adagio-Alleg
TTITLE0=ro
TTITLE1=Haydn Symphony No 100 in G Hob I 100 Military - 2 Allegretto
TTITLE2=Haydn Symphony No 100 in G Hob I 100 Military - 3 Minuet(Moder
TTITLE2=ato)
TTITLE3=Haydn Symphony No 100 in G Hob I 100 Military - 4 Finale(Prest
TTITLE3=o)
TTITLE4=Haydn Symphony No 104 in D Hob I 104 London - 1 Adagio-Allegro
TTITLE5=Haydn Symphony No 104 in D Hob I 104 London - 2 Andante
TTITLE6=Haydn Symphony No 104 in D Hob I 104 London - 3 Menuet(Allegro
TTITLE6=)
TTITLE7=Haydn Symphony No 104 in D Hob I 104 London - 4 Finale(Spirito
TTITLE7=so)
EXTD=
EXTT0=
EXTT1=
EXTT2=
EXTT3=
EXTT4=
EXTT5=
EXTT6=
EXTT7=
PLAYORDER=
